<svg width="40" height="22" viewBox="0 0 40 22" fill="none" xmlns="http://www.w3.org/2000/svg">
<path id="Vector" fill-rule="evenodd" clip-rule="evenodd" d="M4.66924 0.0282435C3.62015 0.114051 2.59775 0.30183 1.62219 0.58802C1.09941 0.741359 0.0689576 1.11446 0.000462157 1.17507C-0.0186763 1.19224 0.559005 1.2075 1.28475 1.2089C2.72366 1.21167 3.2812 1.2664 4.5937 1.53381C8.28641 2.28614 11.5893 4.35088 13.7822 7.27746C15.0755 9.00324 15.8768 11.5509 15.6779 13.3031C15.4507 15.3024 14.3326 16.9006 12.3412 18.0727C12.1106 18.2085 11.7404 18.4376 11.5188 18.5818C10.37 19.3293 9.00258 19.8127 7.46445 20.015C6.79763 20.1027 5.40405 20.0902 4.64406 19.9897C4.29755 19.9439 3.97471 19.8942 3.92636 19.8793C3.7098 19.8128 3.87449 19.9597 4.27892 20.1938C5.31793 20.7952 6.56646 21.1965 7.91622 21.3629C8.54981 21.4409 10.0849 21.4276 10.7734 21.3383C13.9977 20.9195 17.361 19.2052 20.7098 16.2736C21.0281 15.9949 21.7986 15.2696 22.4222 14.6618C23.8777 13.2428 24.5123 12.7206 25.8232 11.8628C29.0566 9.74673 32.4598 8.6462 36.2728 8.48338C37.1169 8.44738 38.5856 8.51958 39.4417 8.63917C39.7303 8.67949 39.9792 8.69948 39.9953 8.68356C40.0794 8.60001 39.0237 7.89146 38.2376 7.50315C37.4896 7.13416 36.8279 6.8905 36.0029 6.68108C34.6189 6.32946 33.6302 6.22779 31.9919 6.26856C30.4855 6.30602 29.5225 6.43435 27.9879 6.80213C27.5447 6.90832 27.0234 7.01863 26.8295 7.04725C24.5888 7.37812 21.776 6.81438 19.5861 5.59571C18.8659 5.19509 18.5396 4.97874 17.5257 4.22968C16.3109 3.33269 15.3848 2.75695 14.1629 2.13948C11.96 1.02635 9.87791 0.37348 7.66943 0.103457C6.8767 0.00655371 5.38995 -0.0307018 4.66924 0.0282435Z" fill="#F0484C"/>
</svg>
