<svg width="160" height="60" viewBox="0 0 160 60" fill="none" xmlns="http://www.w3.org/2000/svg">
<path fill-rule="evenodd" clip-rule="evenodd" d="M114.655 0.106683C113.486 0.352779 112.223 0.977821 111.165 1.83363C110.428 2.43062 109.569 2.82116 108.587 3.00557C107.895 3.13571 106.654 3.0907 105.782 2.90364C103.161 2.34175 100.505 2.76104 98.569 4.04254C98.1485 4.32064 97.1205 5.23711 97.1714 5.28813C97.1843 5.3008 97.3483 5.23359 97.5355 5.13876C98.7719 4.51431 100.431 4.15324 101.642 4.24541C102.968 4.34637 104.363 4.79512 105.192 5.38756C106.276 6.16181 106.924 7.08998 107.067 8.07479C107.184 8.87596 106.966 9.55196 106.24 10.6387C105.794 11.3079 105.348 11.7818 104.849 12.1198C104.427 12.4052 103.711 12.7549 103.32 12.8671C103.156 12.9141 103.002 12.9708 102.978 12.9932C102.895 13.0699 103.571 13.1062 104.054 13.051C106.713 12.7477 108.847 10.6096 110.247 6.84762C110.744 5.51077 111.111 4.80899 111.801 3.88196C113.016 2.24692 114.707 0.991956 116.538 0.365723C116.827 0.266938 117.063 0.17124 117.063 0.152989C117.063 0.134737 116.925 0.0921147 116.756 0.0582115C116.285 -0.0366743 115.22 -0.0120864 114.655 0.106683ZM136.813 5.98645C135.187 6.18239 133.594 6.63256 131.994 7.34886C130.618 7.96453 129.447 8.26278 128.182 8.31943C126.711 8.38539 125.575 8.14839 124.168 7.48187C122.415 6.6514 121.18 6.27825 119.633 6.11226C118.502 5.99083 117.003 6.13744 116.057 6.4619C115.61 6.61539 115.169 6.82541 115.169 6.88548C115.169 6.90936 115.273 6.92929 115.399 6.92983C115.742 6.93135 116.662 7.07113 117.377 7.23052C119.06 7.60567 120.751 8.32609 122.214 9.292C123.773 10.3207 125.438 11.9582 126.391 13.4008C126.549 13.6391 126.96 14.2606 127.305 14.7818C129.665 18.3518 132.337 20.464 135.338 21.1308C135.774 21.2278 136.045 21.2487 136.894 21.2509C137.553 21.2526 138.038 21.228 138.247 21.1823C138.743 21.0734 139.302 20.8921 139.302 20.84C139.302 20.8144 139.17 20.7934 139.009 20.7934C138.571 20.7934 137.545 20.6032 136.943 20.4098C135.733 20.0221 134.908 19.5059 133.856 18.4808C132.787 17.4378 132.354 16.8371 132.085 16.0275C131.791 15.1389 131.791 14.2938 132.087 13.3568C132.817 11.0387 135.01 9.05902 137.921 8.08958C139.161 7.67678 140.138 7.5246 141.547 7.5246C142.781 7.5246 143.861 7.66676 144.807 7.95364C144.993 8.01007 145.145 8.03661 145.145 8.01262C145.145 7.92846 144.191 7.34826 143.495 7.00858C141.907 6.23422 140.329 5.89373 138.384 5.90564C137.862 5.90884 137.155 5.94518 136.813 5.98645ZM115.169 15.9259C112.223 16.224 109.122 17.5886 106.418 19.7772C105.265 20.7109 104.347 21.2598 103.19 21.7068C102.512 21.9689 101.47 22.2296 100.759 22.3148C100.027 22.4024 98.7719 22.3523 98.1523 22.2107C94.6997 21.4218 91.2368 21.8747 88.929 23.4169C88.4426 23.742 88.033 24.0974 88.1455 24.0968C88.1737 24.0967 88.5248 24.0467 88.9269 23.9856C89.877 23.8413 91.6253 23.7891 92.6019 23.8758C96.3603 24.2095 99.9119 25.8238 102.753 28.4894C107.166 32.6302 111.53 34.3599 115.431 33.5139C116.366 33.3112 117.63 32.7802 118.064 32.4081L118.227 32.2689L118.037 32.296C116.674 32.4905 116.517 32.5022 115.656 32.4739C114.337 32.4304 113.322 32.1811 112.329 31.6567C110.871 30.8868 110.201 30.4459 109.649 29.8935C108.244 28.4877 107.889 26.5391 108.628 24.2866C108.884 23.5046 109.434 22.4404 109.905 21.8135C112.244 18.703 115.84 16.8831 119.931 16.7395L120.932 16.7045L120.238 16.4737C118.673 15.9537 116.846 15.7562 115.169 15.9259ZM121.906 23.2325C120.779 23.325 119.68 23.5276 118.632 23.8363C118.071 24.0017 116.964 24.4042 116.89 24.4695C116.869 24.488 117.49 24.5045 118.27 24.506C119.816 24.509 120.415 24.568 121.825 24.8565C125.792 25.668 129.34 27.8952 131.696 31.0519C133.086 32.9135 133.947 35.6616 133.733 37.5516C133.489 39.7081 132.288 41.432 130.148 42.6964C129.9 42.8429 129.503 43.09 129.265 43.2455C128.03 44.0517 126.561 44.5732 124.909 44.7914C124.192 44.8861 122.695 44.8726 121.879 44.7641C121.507 44.7147 121.16 44.6611 121.108 44.6451C120.875 44.5733 121.052 44.7318 121.487 44.9842C122.603 45.633 123.944 46.0658 125.394 46.2453C126.075 46.3295 127.724 46.3152 128.464 46.2188C131.928 45.7671 135.541 43.918 139.139 40.7557C139.481 40.4551 140.309 39.6728 140.978 39.0171C142.542 37.4865 143.224 36.9232 144.632 35.998C148.106 33.7155 151.762 32.5284 155.859 32.3527C156.766 32.3139 158.343 32.3918 159.263 32.5208C159.573 32.5643 159.841 32.5858 159.858 32.5686C159.948 32.4785 158.814 31.7142 157.97 31.2954C157.166 30.8974 156.455 30.6345 155.569 30.4086C154.082 30.0294 153.02 29.9197 151.26 29.9637C149.641 30.0041 148.607 30.1425 146.958 30.5392C146.482 30.6538 145.922 30.7727 145.714 30.8036C143.306 31.1605 140.284 30.5524 137.932 29.2379C137.158 28.8058 136.807 28.5724 135.718 27.7644C134.413 26.7969 133.418 26.1758 132.105 25.5098C129.739 24.3091 127.502 23.6049 125.129 23.3136C124.277 23.2091 122.68 23.1689 121.906 23.2325ZM77.1313 37.51C75.1255 37.6491 73.2458 37.9301 72.6706 38.1767C72.3 38.3359 71.9087 38.7298 71.7627 39.0912L71.6393 39.3968V49.4161V59.4354L71.7621 59.6326C71.9845 59.9916 72.1008 60.0149 73.5504 59.9949C74.9918 59.9749 75.1071 59.9489 75.5589 59.54C76.0983 59.052 76.1552 58.7325 76.1562 56.1659L76.1573 54.1416L76.4684 54.175C77.1713 54.2509 79.7122 54.2769 80.3507 54.2146C82.6011 53.9952 84.2627 53.2874 85.4185 52.0559C86.4033 51.0066 86.9968 49.6323 87.2609 47.7914C87.3523 47.1545 87.3512 44.7159 87.2593 44.0274C87.0953 42.7945 86.7955 41.7061 86.407 40.9317C85.3801 38.8842 83.496 37.8163 80.4048 37.5295C79.8697 37.4799 77.7481 37.4672 77.1313 37.51ZM95.3387 37.5655C93.8377 37.6966 92.5657 38.0634 91.5538 38.657C90.9873 38.9893 90.1692 39.794 89.8207 40.3608C89.2867 41.2307 88.9301 42.2849 88.7272 43.5941C88.6044 44.3853 88.5887 46.9236 88.7018 47.6831C88.9637 49.4355 89.4193 50.644 90.2136 51.6907C91.1875 52.9747 92.6349 53.7381 94.7435 54.0795C95.8149 54.253 99.7918 54.2335 101.295 54.0474C102.216 53.9335 102.787 53.6293 103.063 53.1058C103.163 52.9168 103.184 52.7735 103.2 52.1782C103.224 51.3051 103.151 50.552 103.016 50.2763C102.96 50.1614 102.828 50.0095 102.724 49.9388C102.54 49.8134 102.515 49.811 101.754 49.8439C101.324 49.8626 100.471 49.9175 99.86 49.9661C98.3585 50.0853 96.0437 50.0867 95.4237 49.9687C94.8658 49.8625 94.3875 49.634 94.0753 49.3244C93.8453 49.0965 93.5439 48.6488 93.5899 48.6028C93.6029 48.5902 94.8658 48.3583 96.3971 48.0876C100.878 47.2953 101.108 47.2339 102.17 46.5421C103.489 45.6832 104.05 44.6369 104.116 42.9105C104.162 41.7166 103.986 40.8664 103.532 40.092C103.257 39.6225 102.51 38.9023 102 38.6148C101.496 38.3307 100.765 38.0468 100.133 37.8902C99.6885 37.7801 99.6657 37.7797 99.1376 37.8698C98.1372 38.0407 96.9289 38.5289 96.0567 39.1143C95.6385 39.395 95.6514 39.3408 96.1406 38.7676C96.4522 38.403 96.6638 38.2 97.2866 37.67L97.4489 37.5318L96.502 37.5392C95.9815 37.5433 95.4577 37.5551 95.3387 37.5655ZM110.381 37.5847C108.375 37.8054 107.01 38.3368 106.121 39.2433C105.692 39.6803 105.557 39.8714 105.321 40.3717C104.796 41.4893 104.705 43.0266 105.097 44.1659C105.463 45.2284 106.229 45.9757 107.54 46.5491C108.235 46.8536 108.794 47.0288 110.733 47.5511C113.177 48.2094 113.976 48.4954 114.39 48.8597C114.89 49.2988 114.378 49.8618 113.289 50.0703C112.281 50.2634 109.944 50.2122 107.919 49.9526C105.794 49.6802 105.959 49.6903 105.678 49.8149C105.322 49.9723 105.236 50.195 105.191 51.068C105.113 52.5736 105.424 53.3774 106.222 53.7307C106.782 53.9783 108.518 54.15 110.895 54.1929C112.073 54.214 112.894 54.2032 113.384 54.1593C115.496 53.9716 116.958 53.4076 117.908 52.4132C118.716 51.5689 119.089 50.612 119.152 49.2266C119.215 47.8246 118.837 46.8161 117.92 45.9422C116.92 44.9886 115.784 44.5159 112.597 43.7272C110.832 43.2903 110.424 43.1697 109.985 42.9553C109.686 42.8094 109.38 42.5135 109.38 42.371C109.38 42.0454 109.778 41.7697 110.465 41.6192C111.419 41.4103 114.191 41.4629 116.116 41.7265C116.652 41.7998 117.183 41.8601 117.295 41.8604C117.586 41.8613 117.886 41.6921 117.994 41.4657C118.12 41.2018 118.184 39.8453 118.093 39.3968C117.954 38.7215 117.561 38.246 116.882 37.9347C116.116 37.5836 115.951 37.5661 113.249 37.5508C111.909 37.5433 110.619 37.5585 110.381 37.5847ZM97.8845 41.4857C98.8536 41.6206 99.4212 41.9454 99.5343 42.4297C99.6089 42.7518 99.5072 43.1781 99.2978 43.4168C99.0776 43.6674 98.8379 43.7695 98.0712 43.9387C97.0031 44.1744 93.2517 44.854 93.216 44.8183C93.1614 44.7637 93.3026 43.6993 93.4211 43.2714C93.4806 43.0556 93.5786 42.7829 93.6381 42.6655C93.9719 42.0114 94.6596 41.6285 95.7591 41.4854C96.2629 41.4198 97.4121 41.42 97.8845 41.4857ZM79.8854 41.6457C80.8215 41.7672 81.533 42.0398 81.9155 42.4228C82.4312 42.9392 82.6785 43.875 82.7401 45.5438C82.8072 47.3684 82.5161 48.6055 81.8674 49.2551C81.1645 49.9583 79.7463 50.2377 77.576 50.1003C76.989 50.0632 76.43 50.0192 76.3332 50.0026L76.1573 49.9725V45.8951V41.8177L76.4143 41.7561C76.5556 41.7223 76.8293 41.6742 77.0231 41.6493C77.5171 41.5856 79.4054 41.5832 79.8854 41.6457Z" fill="#1A5EAC"/>
<path fill-rule="evenodd" clip-rule="evenodd" d="M3.28513 33.4672C2.37844 33.5927 1.85613 34.1124 1.70766 35.0369C1.67654 35.2305 1.65095 35.9312 1.65074 36.5939L1.6503 37.7989L1.1498 37.8001C0.546277 37.8015 0.248898 37.9111 0.0982606 38.1873C0.0105511 38.3483 0 38.5167 0 39.7582C0 41.0873 0.00503207 41.1556 0.113898 41.3017C0.32281 41.5823 0.541083 41.6663 1.12139 41.6897L1.6503 41.711L1.65036 45.2926C1.65041 48.8749 1.68217 49.7026 1.84807 50.4445C2.18468 51.9499 3.11279 53.0955 4.46085 53.6697C5.45406 54.0928 6.55554 54.2409 8.33267 54.1905C10.0264 54.1426 10.5347 54.0284 10.9406 53.6044C11.3427 53.1845 11.4681 52.5853 11.3918 51.4496C11.3312 50.5466 11.2746 50.4091 10.8798 50.2057C10.5247 50.0228 9.87638 49.9962 8.81889 50.121C8.00716 50.2168 7.2701 50.2052 6.83609 50.0899C6.56474 50.0177 6.32834 49.7332 6.25492 49.3905C6.21493 49.2038 6.1954 47.8974 6.1954 45.408V41.7033L8.21093 41.6873C10.125 41.6721 10.2359 41.6657 10.4139 41.561C10.517 41.5004 10.6509 41.3663 10.7115 41.2632C10.8142 41.0882 10.8217 40.9857 10.8217 39.7486C10.8217 38.5191 10.8137 38.4083 10.7134 38.2379C10.6539 38.1367 10.5365 38.0027 10.4525 37.94C10.3045 37.8295 10.237 37.8255 8.24761 37.8106L6.1954 37.7952V35.9672C6.1954 34.1788 6.19275 34.1339 6.07365 33.8987C5.86344 33.4836 5.73088 33.4415 4.5992 33.43C4.06353 33.4246 3.47218 33.4413 3.28513 33.4672ZM18.1804 37.5066C15.9106 37.6751 14.4617 38.295 13.5162 39.5019C13.1681 39.9464 12.7925 40.6978 12.6351 41.2651C12.3691 42.2232 12.3644 42.3416 12.3641 48.0675L12.3637 53.4347L12.4866 53.6187C12.7326 53.9874 12.7862 53.9963 14.673 53.9798C16.2818 53.9659 16.3671 53.96 16.5127 53.8531C16.5966 53.7914 16.7079 53.6573 16.7599 53.5552C16.8481 53.3822 16.8546 53.0104 16.8546 48.1124C16.8547 42.2758 16.8422 42.4881 17.2099 42.0807C17.3126 41.9669 17.5243 41.8161 17.6803 41.7455C17.9599 41.6191 17.995 41.6169 20.1553 41.5901C22.2222 41.5645 22.3572 41.5568 22.5308 41.4546C22.6321 41.395 22.766 41.2488 22.8284 41.1297C22.9324 40.9312 22.9419 40.8244 22.9419 39.857C22.9419 38.8089 22.9408 38.7985 22.7898 38.4909C22.5055 37.9113 22.1037 37.6845 21.1839 37.5845C20.6725 37.529 18.603 37.4753 18.1804 37.5066ZM46.1002 37.5266C43.6696 37.6357 41.5178 37.9352 40.8953 38.2509C40.556 38.423 40.2202 38.7887 40.0891 39.129C39.9896 39.3873 39.986 39.6425 39.986 46.4468C39.986 53.4923 39.9861 53.497 40.0981 53.6499C40.3393 53.9789 40.4198 53.9921 42.1927 53.9922C43.9223 53.9923 44.029 53.9778 44.2756 53.7099C44.3535 53.6252 44.418 53.4585 44.4511 53.2561C44.4824 53.0649 44.5036 50.699 44.5037 47.3751C44.5041 42.1259 44.5094 41.8123 44.5987 41.7855C44.8947 41.6965 46.0629 41.6273 47.3177 41.6244C48.4837 41.6217 48.8271 41.6383 49.1557 41.7134C49.8862 41.8804 50.231 42.2037 50.4387 42.9169C50.5249 43.2128 50.5359 43.6998 50.5623 48.3695C50.591 53.4475 50.5923 53.4985 50.7033 53.6499C50.9501 53.9865 51.0127 53.996 52.8735 53.9798C54.4822 53.9659 54.5676 53.96 54.7132 53.8531C54.7971 53.7914 54.9085 53.6573 54.9605 53.5552C55.0487 53.3821 55.0552 53.007 55.0546 48.0349C55.0546 43.6808 55.04 42.6057 54.9767 42.1855C54.5779 39.5343 52.8457 38.0128 49.7669 37.6088C48.983 37.506 47.3672 37.4698 46.1002 37.5266ZM61.7375 37.5845C60.1814 37.7558 59.0024 38.1183 58.1437 38.6896C57.6697 39.0053 57.0247 39.6884 56.7958 40.1182C56.331 40.9914 56.1303 42.1093 56.2472 43.1775C56.3862 44.456 56.904 45.3448 57.8915 46.0026C58.7232 46.5563 59.5213 46.8609 61.5817 47.4108C64.4559 48.1776 65.3092 48.4743 65.747 48.8594C66.2469 49.2985 65.7345 49.8616 64.6459 50.07C63.6373 50.2632 61.3009 50.212 59.2756 49.9524C57.1508 49.6799 57.3158 49.6901 57.0344 49.8147C56.6822 49.9705 56.5929 50.1967 56.5485 51.0407C56.4544 52.838 56.9003 53.659 58.0928 53.8854C59.505 54.1535 63.2147 54.3015 64.8217 54.1542C68.5005 53.8167 70.3564 52.2098 70.5139 49.2264C70.5815 47.9454 70.2515 46.991 69.4371 46.1139C68.4686 45.0702 67.2425 44.5406 63.8515 43.7012C62.0286 43.2499 61.395 43.0436 61.0612 42.7928C60.716 42.5334 60.6721 42.4134 60.8188 42.1292C60.9243 41.9251 61.3025 41.7326 61.8219 41.619C62.7412 41.4176 65.5478 41.4622 67.2836 41.7056C68.5243 41.8797 68.8463 41.8889 69.0562 41.7563C69.3738 41.5562 69.4334 41.3887 69.4777 40.5689C69.5427 39.3753 69.3895 38.8167 68.8647 38.3325C68.5757 38.0659 67.9957 37.7912 67.446 37.6607C67.0937 37.577 66.7187 37.5625 64.6053 37.5506C63.2661 37.543 61.9756 37.5582 61.7375 37.5845ZM26.9459 37.6157C26.001 37.6811 25.2795 37.7617 24.998 37.8335C24.3301 38.0039 23.9213 38.3378 23.7443 38.8575C23.6211 39.2193 23.6658 41.0742 23.8058 41.4142C23.9197 41.6906 24.1511 41.8983 24.3966 41.9444C24.4955 41.963 25.1705 41.9385 25.8964 41.8901C26.6225 41.8416 27.606 41.7761 28.0822 41.7444C29.0505 41.6801 30.9261 41.7141 31.464 41.8057C31.8829 41.8771 32.4288 42.1204 32.7324 42.3711C32.9288 42.5333 33.3508 43.1377 33.2976 43.1806C33.2861 43.1899 32.0713 43.4105 30.5982 43.6708C26.5471 44.3865 26.1005 44.4888 25.3249 44.8785C24.0224 45.5328 23.2301 46.4356 22.9083 47.6318C22.7433 48.2447 22.7026 49.6776 22.8318 50.3171C23.1818 52.0488 24.3887 53.2196 26.4246 53.8029C27.5475 54.1245 29.312 54.3015 30.7876 54.2403C35.4334 54.0481 37.5879 52.2242 38.1822 47.9807C38.2272 47.6596 38.2543 46.9369 38.2543 46.0581C38.2543 44.2267 38.1209 43.2565 37.7046 42.0595C36.9792 39.9733 35.7013 38.7158 33.6237 38.0436C32.4425 37.6614 32.0973 37.6249 29.5161 37.6101C28.2513 37.6029 27.0947 37.6054 26.9459 37.6157ZM33.6326 47.5032C33.4736 48.9703 33.0541 49.7122 32.2031 50.0308C31.5993 50.257 31.1076 50.3248 30.0571 50.3269C28.6669 50.3296 28.0348 50.1825 27.5807 49.7504C27.2746 49.4593 27.2306 48.9767 27.4675 48.5088C27.6082 48.231 27.8944 48.0568 28.4362 47.919C28.9037 47.8001 33.64 46.9069 33.6742 46.9311C33.6847 46.9384 33.6659 47.1958 33.6326 47.5032Z" fill="#EF4541"/>
</svg>
